<svg xmlns="http://www.w3.org/2000/svg" viewBox="0 0 47 51" fill="none">
  <defs>
    <linearGradient id="logoGradient" x1="0" x2="46.48" y1="25.18" y2="25.18" gradientUnits="userSpaceOnUse">
      <stop stop-color="#FD9248"/>
      <stop offset="0.49" stop-color="#FA1768"/>
      <stop offset="0.99" stop-color="#F001FF"/>
    </linearGradient>
  </defs>
  <path fill="url(#logoGradient)" d="M25.5898 1.13127C27.7371 0.126394 30.1339 -0.219924 32.4778 0.136022C34.8217 0.491967 37.0077 1.53423 38.7598 3.13127C41.0898 5.40127 43.3898 7.71127 45.6698 10.0313C45.9181 10.2674 46.1168 10.5506 46.2544 10.8643C46.3921 11.1781 46.4658 11.5161 46.4714 11.8587C46.477 12.2013 46.4143 12.5415 46.287 12.8596C46.1597 13.1777 45.9702 13.4672 45.7298 13.7113C41.9298 17.5413 38.1198 21.3413 34.3098 25.1513C37.9998 29.0813 41.9998 32.8213 45.7698 36.7013C46.0084 36.9492 46.1944 37.2429 46.3165 37.5646C46.4386 37.8864 46.4943 38.2295 46.4803 38.5733C46.4663 38.9171 46.3828 39.2546 46.2349 39.5653C46.087 39.876 45.8778 40.1536 45.6198 40.3813C43.3298 42.6913 40.9998 45.0013 38.6998 47.2813C36.6098 49.1573 33.9279 50.2409 31.1212 50.3432C28.3146 50.4455 25.5609 49.5601 23.3398 47.8413C21.2298 46.0413 19.4198 43.9313 17.3398 42.0813C15.7798 43.6413 14.2298 45.2213 12.6598 46.7713C12.2415 47.227 11.6744 47.5186 11.0604 47.5937C10.4464 47.6688 9.8257 47.5226 9.30982 47.1813C5.10426 43.1019 2.15604 37.9027 0.8144 32.1993C-0.527242 26.496 -0.206089 20.5277 1.73982 15.0013C3.25994 10.6318 5.76842 6.67227 9.06981 3.43127C9.29346 3.20146 9.56088 3.01879 9.8563 2.89406C10.1517 2.76933 10.4691 2.70507 10.7898 2.70507C11.1105 2.70507 11.4279 2.76933 11.7233 2.89406C12.0187 3.01879 12.2862 3.20146 12.5098 3.43127C14.1598 5.00127 15.7598 6.70127 17.3898 8.32127C20.0998 5.91127 22.2598 2.75127 25.5898 1.13127ZM26.2198 6.75127C24.4398 8.43127 22.7298 10.2013 21.0198 11.9413L30.6798 21.6013C33.9098 18.3913 37.1198 15.1513 40.3598 11.9413C38.6598 10.1713 36.9998 8.40127 35.1498 6.73127C33.9086 5.65833 32.3218 5.06957 30.6811 5.07324C29.0404 5.07691 27.4562 5.67278 26.2198 6.75127ZM10.8198 9.00127C8.02864 12.477 6.17007 16.6072 5.41982 21.0013C4.82338 24.5957 5.00387 28.2763 5.94914 31.7951C6.8944 35.314 8.5825 38.5895 10.8998 41.4013L13.8998 38.4013C10.9823 34.6233 9.39964 29.9846 9.39964 25.2113C9.39964 20.4379 10.9823 15.7992 13.8998 12.0213C12.8898 11.0013 11.8798 9.94127 10.8198 9.00127ZM17.4998 15.6713C15.526 18.4654 14.4712 21.8049 14.4819 25.2259C14.4927 28.6468 15.5684 31.9796 17.5598 34.7613C20.7398 31.6013 23.8898 28.4113 27.0698 25.2613C23.9298 21.9946 20.7398 18.7879 17.4998 15.6413V15.6713ZM20.9998 38.4313C22.7398 40.1813 24.4398 41.9713 26.2398 43.6613C27.4665 44.7171 29.0313 45.2978 30.6498 45.2978C32.2683 45.2978 33.8331 44.7171 35.0598 43.6613C36.8598 41.9613 38.5598 40.1713 40.3198 38.4213L30.6498 28.7513C27.4698 32.0013 24.2398 35.2113 20.9998 38.4313Z"/>
</svg>
